<?xml version="1.0" standalone="no"?>
<!DOCTYPE svg PUBLIC "-//W3C//DTD SVG 20010904//EN"
 "http://www.w3.org/TR/2001/REC-SVG-20010904/DTD/svg10.dtd">
<svg version="1.0" xmlns="http://www.w3.org/2000/svg"
 width="741.000000pt" height="741.000000pt" viewBox="0 0 741.000000 741.000000"
 preserveAspectRatio="xMidYMid meet">
<metadata>
Created by potrace 1.14, written by Peter Selinger 2001-2017
</metadata>
<g transform="translate(0.000000,741.000000) scale(0.100000,-0.100000)"
fill="#000000" stroke="none">
<path d="M2825 7388 c-450 -108 -840 -507 -893 -913 -4 -33 -7 -1502 -7 -3265
l0 -3205 323 -2 322 -1 0 2756 c1 1517 3 2800 5 2852 12 311 51 558 121 769
82 248 228 364 351 278 31 -22 95 -99 121 -145 48 -85 114 -308 136 -462 2 -8
6 -40 11 -70 4 -30 9 -63 11 -73 3 -20 15 -184 19 -267 2 -30 4 -571 5 -1201
1 -676 6 -1168 12 -1199 21 -116 108 -246 205 -308 26 -17 77 -40 113 -53 63
-21 79 -22 505 -24 242 -1 456 -5 475 -9 88 -17 148 -67 167 -138 10 -37 12
-1750 2 -1803 -43 -232 -270 -367 -502 -300 -133 38 -231 145 -266 290 -9 36
-13 190 -12 556 l0 506 -322 -1 -322 -1 0 -796 0 -795 37 -75 c20 -41 46 -86
58 -99 61 -73 122 -125 180 -153 l65 -32 615 -2 c367 -1 630 2 652 8 112 29
367 268 443 414 l30 58 0 1331 c1 1430 2 1403 -50 1491 -51 88 -131 151 -230
182 -29 9 -164 12 -502 13 -429 0 -467 2 -525 20 -68 21 -124 65 -155 122 -17
31 -18 88 -18 1013 0 941 3 1082 24 1260 15 122 17 136 56 316 12 58 52 175
80 237 82 178 195 253 300 200 44 -23 107 -103 150 -191 59 -123 116 -348 140
-552 3 -27 8 -75 12 -105 3 -30 8 -449 10 -930 2 -481 6 -876 8 -879 4 -3 562
-5 628 -2 17 1 17 58 14 1239 -2 680 -7 1252 -11 1271 -68 295 -273 564 -561
737 -170 102 -319 144 -511 142 -273 -2 -417 -53 -592 -212 -40 -36 -75 -66
-78 -66 -3 0 -18 13 -32 28 -42 44 -148 129 -195 157 -111 64 -248 93 -452 93
-71 0 -148 -5 -170 -10z"/>
</g>
</svg>
