<svg width="76" height="76" viewBox="0 0 76 76" fill="none" xmlns="http://www.w3.org/2000/svg">
<path d="M38 0C48.0782 0 57.7437 4.00356 64.8701 11.1299C71.9964 18.2563 76 27.9218 76 38C76 48.0782 71.9964 57.7437 64.8701 64.8701C57.7437 71.9964 48.0782 76 38 76C27.9218 76 18.2563 71.9964 11.1299 64.8701C4.00356 57.7437 0 48.0782 0 38C0 27.9218 4.00356 18.2563 11.1299 11.1299C18.2563 4.00356 27.9218 0 38 0ZM33.2663 45.4969L24.8249 37.05C24.5222 36.7474 24.163 36.5073 23.7676 36.3435C23.3722 36.1798 22.9484 36.0955 22.5204 36.0955C22.0925 36.0955 21.6687 36.1798 21.2733 36.3435C20.8779 36.5073 20.5186 36.7474 20.216 37.05C19.6048 37.6612 19.2615 38.4901 19.2615 39.3544C19.2615 40.2188 19.6048 41.0477 20.216 41.6589L30.9646 52.4074C31.2663 52.7116 31.6253 52.953 32.0208 53.1177C32.4163 53.2824 32.8406 53.3672 33.269 53.3672C33.6974 53.3672 34.1217 53.2824 34.5172 53.1177C34.9127 52.953 35.2717 52.7116 35.5734 52.4074L57.8306 30.1449C58.1372 29.8435 58.3812 29.4844 58.5484 29.0883C58.7156 28.6921 58.8027 28.2668 58.8047 27.8369C58.8067 27.4069 58.7235 26.9808 58.56 26.5832C58.3965 26.1855 58.1559 25.8242 57.8521 25.5199C57.5482 25.2157 57.1872 24.9747 56.7897 24.8107C56.3922 24.6468 55.9662 24.5631 55.5363 24.5646C55.1063 24.5661 54.6809 24.6527 54.2846 24.8194C53.8883 24.9861 53.5289 25.2297 53.2271 25.536L33.2663 45.4969Z" fill="#148F00"/>
</svg>
