<svg width="25" height="25" viewBox="0 0 25 25" fill="none" xmlns="http://www.w3.org/2000/svg">
<path d="M14.5983 18.3942C14.5983 18.5237 14.5983 18.61 14.5983 18.7179C14.5983 20.0774 14.5983 21.4369 14.5983 22.7964C14.5983 23.1848 14.4689 23.3143 14.0804 23.3143C13.0231 23.3143 11.9873 23.3143 10.9299 23.3143C10.563 23.3143 10.4335 23.1632 10.4335 22.7964C10.4335 21.4369 10.4335 20.0774 10.4335 18.7179C10.4335 18.6316 10.4335 18.5237 10.4335 18.3942C9.93722 18.4374 9.4409 18.4805 8.94457 18.5237C7.52034 18.6963 6.0961 18.9553 4.73661 19.4084C3.7008 19.7537 2.70816 20.1637 1.84498 20.8542C1.37024 21.2211 0.981811 21.6527 0.873914 22.2785C0.852335 22.3648 0.852334 22.4511 0.852334 22.5374C0.809175 22.7532 0.636541 22.9043 0.420748 22.9043C0.183375 22.8827 0.0539005 22.7532 0.0323212 22.5158C0.0323212 22.4295 0.0323212 22.3432 0.0323212 22.2569C0.0323212 16.6247 0.0539008 10.9925 0.0107422 5.3603C0.0107422 4.23818 0.463906 3.41816 1.28392 2.7492C2.31973 1.90761 3.50659 1.43287 4.75819 1.04444C6.70033 0.440218 8.68562 0.159685 10.7141 0.0517889C12.2246 -0.0345283 13.7136 -0.012945 15.2026 0.116531C17.5547 0.332324 19.8421 0.742329 22.0216 1.7134C22.9064 2.1234 23.748 2.61972 24.3738 3.375C24.8054 3.8929 24.9996 4.47555 24.9996 5.14451C24.9996 10.863 24.9996 16.56 24.9996 22.2785C24.9996 22.3648 24.9996 22.4511 24.9996 22.5374C24.978 22.7532 24.8485 22.8827 24.6111 22.9043C24.3954 22.9259 24.1796 22.7964 24.1796 22.5806C24.1364 21.6527 23.5322 21.0916 22.8416 20.6169C21.9353 19.9911 20.8995 19.6026 19.8421 19.279C18.1374 18.7826 16.3894 18.5237 14.5983 18.3942ZM8.77194 6.05084C8.98773 6.02926 9.20353 6.00768 9.39774 5.9861C10.0667 5.92136 10.0883 5.92136 10.2393 5.2524C10.3904 4.58344 10.7141 4.1087 11.4046 3.95764C11.4262 3.95764 11.4478 3.93606 11.4694 3.91448C11.4046 3.74185 11.3183 3.5908 11.2967 3.39658C11.2536 3.20237 11.2751 3.00815 11.2751 2.83552C11.2967 2.2313 11.8146 1.7134 12.4188 1.69182C12.721 1.67024 13.0446 1.69182 13.3468 1.69182C13.6057 1.69182 13.7783 1.84287 13.7568 2.10182C13.7352 2.70604 13.9078 3.35342 13.541 3.93606C13.6273 3.97922 13.692 4.0008 13.7568 4.02238C14.3178 4.17344 14.6415 4.56186 14.771 5.12293C14.8141 5.33872 14.8789 5.55451 14.9436 5.77031C14.9652 5.83504 15.0299 5.94294 15.0947 5.94294C15.4831 5.9861 15.8715 6.00768 16.2815 6.05084C16.2815 4.38923 16.2815 2.74921 16.2815 1.0876C13.7783 0.785489 11.2967 0.785489 8.8151 1.0876C8.77194 2.72763 8.77194 4.36765 8.77194 6.05084ZM24.158 20.5737C24.158 19.3437 24.158 18.1137 24.158 16.8836C24.158 16.3226 23.9638 15.8478 23.5969 15.4594C23.1438 14.9847 22.6043 14.6394 22.0432 14.3373C20.8563 13.7331 19.5616 13.3446 18.2668 13.0857C17.8784 12.9994 17.49 12.9346 17.1016 12.8699C17.1016 14.5531 17.1016 16.1931 17.1016 17.8547C17.4684 17.9195 17.8568 17.9842 18.2453 18.0489C18.3532 17.3584 18.7847 17.0131 19.3242 16.8836C19.2811 16.5168 19.1947 16.1715 19.1732 15.8263C19.1516 15.1573 19.7126 14.6178 20.4032 14.5962C20.6621 14.5962 20.9427 14.5962 21.2016 14.5962C21.5037 14.5962 21.6764 14.7473 21.6548 15.071C21.6332 15.6752 21.7843 16.2794 21.4174 16.8405C21.4821 16.8621 21.5253 16.8836 21.5685 16.9052C22.1727 17.0779 22.518 17.4879 22.6043 18.1353C22.669 18.5884 22.7553 19.0632 22.8416 19.5163C22.8632 19.6026 22.9064 19.689 22.9711 19.7321C23.3595 19.9911 23.748 20.2716 24.158 20.5737ZM24.158 14.7473C24.158 14.6826 24.158 14.5962 24.158 14.5315C24.158 13.3446 24.158 12.1794 24.158 10.9925C24.158 10.5609 24.0285 10.1725 23.7696 9.82722C23.4243 9.37405 22.9711 9.02878 22.4748 8.74825C21.1585 7.9714 19.7342 7.56139 18.2668 7.2377C17.8784 7.15138 17.49 7.08665 17.08 7.02191C17.08 8.70509 17.08 10.3451 17.08 12.0067C17.4468 12.0715 17.8352 12.1362 18.1374 12.2009C18.31 11.9204 18.4179 11.6399 18.6121 11.4241C18.8063 11.2299 19.1084 11.122 19.3026 11.0141C19.2595 10.6688 19.1732 10.3235 19.1732 9.99985C19.1516 9.33089 19.7126 8.79141 20.4032 8.76983C20.6621 8.76983 20.9427 8.76983 21.2016 8.76983C21.5037 8.76983 21.6764 8.92088 21.6548 9.22299C21.6332 9.82721 21.7843 10.4314 21.4174 10.9925C21.5037 11.0141 21.5469 11.0357 21.59 11.0572C22.1943 11.2514 22.518 11.6399 22.6043 12.2657C22.669 12.7188 22.7553 13.1936 22.8416 13.6468C22.8632 13.7331 22.9064 13.8194 22.9711 13.8625C23.3595 14.1647 23.748 14.4452 24.158 14.7473ZM7.93035 7.02191C6.29032 7.28086 4.73661 7.66928 3.26922 8.35982C2.57868 8.68351 1.90972 9.07194 1.39182 9.633C1.08971 9.97827 0.852334 10.3667 0.852334 10.8414C0.852334 12.1362 0.852334 13.431 0.852334 14.7257C0.852334 14.7473 0.873914 14.7473 0.895493 14.7689C1.08971 14.5962 1.26234 14.3804 1.49971 14.2725C2.12551 13.992 2.29815 13.4741 2.31973 12.8699C2.31973 12.7836 2.34131 12.7188 2.36288 12.6325C2.42762 11.8341 2.68657 11.1867 3.52817 11.0357C3.46343 10.6688 3.39869 10.3235 3.37711 9.99985C3.35553 9.30931 3.9166 8.76983 4.60713 8.76983C4.86608 8.76983 5.10346 8.76983 5.36241 8.76983C5.72926 8.76983 5.88031 8.92089 5.85873 9.26616C5.83715 9.8488 5.98821 10.453 5.62136 11.0357C6.29032 11.1867 6.70033 11.5751 6.80822 12.2225C7.13191 12.1578 7.43402 12.093 7.71455 12.0715C7.90877 12.0499 7.95193 11.9636 7.95193 11.7909C7.95193 10.453 7.95193 9.09352 7.95193 7.7556C7.93035 7.49665 7.93035 7.28086 7.93035 7.02191ZM6.80822 6.35295C7.11033 6.30979 7.39086 6.22347 7.6714 6.20189C7.90877 6.18031 7.95193 6.09399 7.95193 5.8782C7.95193 4.41081 7.95193 2.92184 7.95193 1.45444C7.95193 1.36813 7.95193 1.28181 7.95193 1.1955C7.90877 1.1955 7.86561 1.1955 7.84403 1.1955C6.44137 1.43287 5.03872 1.75655 3.72238 2.31762C2.88079 2.68446 2.06078 3.09448 1.4134 3.78501C1.04655 4.17344 0.852334 4.64819 0.852334 5.18767C0.873913 6.35295 0.852334 7.51823 0.852334 8.68351C0.852334 8.76983 0.852335 8.83457 0.873914 8.8993C1.26234 8.61877 1.65077 8.33824 2.0392 8.05771C2.10393 8.01455 2.16867 7.90666 2.16867 7.84192C2.25499 7.36718 2.34131 6.87085 2.42762 6.37453C2.51394 5.81347 2.79447 5.44662 3.33395 5.2524C3.42027 5.23082 3.48501 5.18767 3.50659 5.18767C3.46343 4.82082 3.37711 4.47555 3.35553 4.13028C3.33396 3.46132 3.89502 2.92184 4.58555 2.90026C4.84451 2.90026 5.12504 2.90026 5.38399 2.90026C5.6861 2.90026 5.85873 3.05132 5.83715 3.35343C5.81558 3.95765 5.96663 4.56186 5.62136 5.12293C6.52769 5.57609 6.52769 5.57609 6.80822 6.35295ZM24.158 8.92089C24.158 7.71244 24.1364 6.50401 24.158 5.29556C24.1796 4.62661 23.9422 4.08712 23.4674 3.65554C23.2301 3.43974 22.9927 3.24553 22.7337 3.07289C21.5037 2.27446 20.1442 1.84288 18.7416 1.51919C18.2021 1.38971 17.641 1.30339 17.1016 1.17392C17.08 1.21707 17.08 1.21707 17.08 1.23865C17.08 2.83552 17.08 4.43239 17.08 6.02926C17.08 6.094 17.1447 6.18031 17.2094 6.18031C17.5331 6.24505 17.8784 6.28821 18.2021 6.35295C18.461 5.74873 18.31 5.61925 19.3026 5.18767C19.2595 4.79924 19.1732 4.45397 19.1732 4.08712C19.1732 3.4829 19.7126 2.96499 20.2953 2.94341C20.5974 2.92184 20.9211 2.94341 21.2232 2.94341C21.4822 2.94341 21.6548 3.09447 21.6332 3.35343C21.6116 3.95765 21.7627 4.60503 21.4174 5.16609C21.439 5.20925 21.439 5.20924 21.439 5.20924C21.4606 5.23082 21.5037 5.23082 21.5253 5.2524C22.1511 5.42504 22.4964 5.83504 22.5611 6.504C22.6259 6.95717 22.7122 7.43192 22.7985 7.88508C22.8201 7.94982 22.8416 8.03613 22.9064 8.07929C23.3595 8.33825 23.748 8.61877 24.158 8.92089ZM0.852334 20.5737C1.21918 20.2932 1.56445 20.0342 1.90972 19.7969C2.08235 19.689 2.16867 19.5595 2.19025 19.3653C2.23341 18.9984 2.31973 18.6532 2.36288 18.2863C2.42762 17.5526 2.75131 17.0347 3.52817 16.8405C3.54975 16.8405 3.54975 16.8189 3.50659 16.8621C3.44185 16.4736 3.37711 16.1284 3.35553 15.8047C3.33396 15.1357 3.89502 14.5747 4.56397 14.5747C4.82293 14.5747 5.10346 14.5747 5.36241 14.5747C5.6861 14.5747 5.83715 14.7257 5.81557 15.0278C5.79399 15.632 5.94505 16.2363 5.5782 16.8189C6.24716 16.97 6.65717 17.3368 6.76506 18.0058C7.08875 17.941 7.36928 17.8763 7.64981 17.8547C7.86561 17.8331 7.90877 17.7468 7.90877 17.5526C7.90877 16.0636 7.90877 14.5747 7.90877 13.0857C7.90877 12.9994 7.90877 12.9346 7.90877 12.8267C5.94505 13.172 4.04607 13.6036 2.34131 14.661C1.97446 14.8768 1.65077 15.1789 1.34866 15.481C1.04655 15.7831 0.852334 16.15 0.852334 16.6031C0.852334 17.941 0.852334 19.2574 0.852334 20.5737ZM8.77194 14.3373C8.79352 14.3373 8.79352 14.3373 8.8151 14.3373C9.05247 13.4741 9.31142 12.5894 9.54879 11.7262C9.63511 11.4241 9.78617 11.2515 10.1099 11.1867C10.4983 11.1004 10.8867 10.9925 11.2967 10.9062C11.2751 10.7335 11.2967 10.5393 11.2104 10.4099C10.8867 9.87037 10.822 9.30931 10.8436 8.70509C10.8651 7.79876 11.5773 7.08664 12.4836 7.06506C12.8936 7.06506 13.3036 7.06506 13.7136 7.06506C14.0157 7.06506 14.1668 7.21612 14.1668 7.53981C14.1668 8.03613 14.1452 8.51088 14.1668 9.0072C14.1883 9.48195 14.0804 9.89195 13.8647 10.302C13.7783 10.4746 13.7568 10.6904 13.7136 10.9062C14.102 10.9925 14.4041 11.0788 14.7278 11.1651C15.2457 9.7409 15.7636 8.33825 16.2815 6.91401C13.7352 6.6119 11.2536 6.59032 8.77194 6.91401C8.77194 9.39563 8.77194 11.8773 8.77194 14.3373ZM14.512 11.9851C14.2099 11.9204 13.9294 11.8341 13.6489 11.7694C13.5625 11.7478 13.4331 11.7909 13.3683 11.8341C12.8504 12.2657 12.203 12.2657 11.6851 11.8341C11.642 11.7909 11.5557 11.7262 11.5125 11.7262C11.1888 11.7909 10.8651 11.8773 10.5199 11.9636C10.7357 12.9562 10.9514 13.9057 11.1672 14.8768C11.1888 14.9199 11.2967 14.9847 11.3615 14.9847C12.1383 14.9847 12.8936 14.9847 13.6704 14.9847C13.7352 14.9847 13.8431 14.8984 13.8647 14.8336C13.951 14.5747 13.9941 14.2941 14.0589 14.0352C14.2099 13.3446 14.3394 12.6757 14.512 11.9851ZM11.2751 15.8478C11.2751 17.531 11.2751 19.2142 11.2751 20.8542C11.5557 20.8542 11.8146 20.8542 12.0952 20.8542C12.0952 19.6026 12.0952 18.351 12.0952 17.0994C12.3757 17.0994 12.6346 17.0994 12.9152 17.0994C12.9152 18.3726 12.9152 19.6242 12.9152 20.8542C13.1957 20.8542 13.4762 20.8542 13.7352 20.8542C13.7352 19.1926 13.7352 17.531 13.7352 15.8478C12.9152 15.8478 12.1167 15.8478 11.2751 15.8478ZM16.2384 9.61143C16.2168 9.61143 16.1952 9.61142 16.1736 9.58984C15.8931 10.4314 15.5694 11.273 15.332 12.1146C15.1163 12.8267 15.0299 13.582 14.8357 14.3157C14.5336 15.3731 14.5983 16.4521 14.5983 17.5526C15.1594 17.5958 15.6989 17.6605 16.26 17.7037C16.2384 14.9847 16.2384 12.2873 16.2384 9.61143ZM13.3252 7.90665C13.0231 7.90665 12.7641 7.90665 12.4836 7.90665C12.0736 7.92823 11.7499 8.16561 11.6851 8.57561C11.6204 8.98562 11.5772 9.41721 11.8146 9.78406C12.0088 10.1077 12.1167 10.453 12.0736 10.8414C12.052 11.122 12.2246 11.2946 12.4836 11.2946C12.7425 11.2946 12.9152 11.122 12.8936 10.863C12.872 10.4746 12.9583 10.1077 13.1525 9.78406C13.2173 9.65458 13.3036 9.50353 13.3036 9.37405C13.3468 8.89931 13.3252 8.42456 13.3252 7.90665ZM9.93722 13.4525C9.52722 14.8984 9.13879 16.2794 8.72878 17.7252C9.333 17.6605 9.87248 17.6173 10.412 17.5742C10.5199 16.1715 10.3904 14.8336 9.93722 13.4525ZM14.0373 5.85662C13.9941 5.68399 13.951 5.55452 13.9294 5.40346C13.8862 5.03661 13.692 4.86397 13.3468 4.77766C13.0446 4.69134 12.7641 4.54029 12.462 4.43239C12.3541 4.49713 12.2246 4.58345 12.0952 4.64819C11.8794 4.7345 11.6636 4.77766 11.4694 4.86398C11.3615 4.90714 11.2536 4.97187 11.2104 5.05819C11.1025 5.31714 11.0378 5.59767 10.973 5.8782C12.0088 5.85662 13.0015 5.85662 14.0373 5.85662ZM4.56397 17.3152C4.45608 17.38 4.28344 17.4663 4.11081 17.5526C3.93818 17.6173 3.74396 17.6389 3.59291 17.7252C3.46343 17.8116 3.31238 17.941 3.26922 18.0921C3.1829 18.4374 3.13974 18.7826 3.09658 19.1279C4.04607 18.8042 4.99556 18.5021 5.94505 18.1784C5.90189 17.8763 5.83715 17.8116 5.53504 17.7037C5.21135 17.5742 4.88766 17.4447 4.56397 17.3152ZM5.94505 6.504C5.88031 6.18031 5.83715 6.13716 5.53504 6.02926C5.21135 5.89978 4.82293 5.89979 4.60713 5.61925C4.45608 5.70557 4.3266 5.79188 4.17555 5.85662C3.98133 5.94294 3.76554 5.96452 3.59291 6.05084C3.46343 6.11558 3.31238 6.22347 3.2908 6.33137C3.1829 6.69822 3.13974 7.08665 3.075 7.43191C4.04607 7.1298 4.99556 6.82769 5.94505 6.504ZM20.3816 17.3152C20.2953 17.3584 20.1658 17.4663 20.0148 17.531C19.8421 17.6173 19.6479 17.6605 19.4537 17.7252C19.2163 17.79 19.0868 17.9626 19.0653 18.2C20.0148 18.5237 20.9642 18.8258 21.9137 19.1495C21.8706 18.8905 21.7843 18.6316 21.7843 18.351C21.7627 17.941 21.5469 17.7684 21.2016 17.6821C20.9211 17.5526 20.6621 17.4231 20.3816 17.3152ZM21.9353 7.4535C21.8922 7.19454 21.8058 6.91401 21.8058 6.65506C21.7843 6.26663 21.59 6.09399 21.2232 5.9861C20.9427 5.89978 20.6621 5.7703 20.3816 5.64083C20.2737 5.70557 20.1442 5.79188 19.9932 5.85662C19.8205 5.94294 19.6263 5.9861 19.4321 6.05084C19.1947 6.11558 19.0653 6.28821 19.0653 6.504C20.0363 6.82769 20.9642 7.12981 21.9353 7.4535ZM19.0653 12.3304C20.0148 12.6541 20.9642 12.9562 21.9137 13.2583C21.8706 12.9994 21.7843 12.7404 21.7843 12.4599C21.7627 12.0499 21.5469 11.8772 21.2016 11.7909C20.9211 11.7046 20.6621 11.5751 20.3816 11.4672C20.2953 11.5104 20.1658 11.6183 20.0148 11.6615C19.8421 11.7478 19.6479 11.7909 19.4537 11.8557C19.2163 11.942 19.0868 12.1146 19.0653 12.3304ZM5.94505 12.3304C5.94505 12.093 5.79399 11.942 5.55662 11.8557C5.23293 11.7262 4.8445 11.7262 4.62871 11.4457C4.45608 11.532 4.30502 11.6399 4.15397 11.7046C3.98133 11.7909 3.76554 11.8125 3.59291 11.8988C3.46343 11.9636 3.33395 12.093 3.2908 12.2225C3.20448 12.5678 3.16132 12.9562 3.09658 13.2799C4.04607 12.9562 4.97398 12.6541 5.94505 12.3304ZM4.97398 3.74185C4.88766 3.74185 4.80135 3.74185 4.71503 3.74185C4.30502 3.74185 4.11081 3.91449 4.17555 4.30292C4.24028 4.6266 4.41292 4.9503 4.56397 5.29556C4.88766 4.79924 5.12504 4.34607 4.97398 3.74185ZM4.99556 15.4163C4.90924 15.4163 4.84451 15.4163 4.77977 15.4163C4.30502 15.4163 4.06765 15.6752 4.21871 16.1284C4.30502 16.4089 4.45608 16.6679 4.60713 16.9484C4.99556 16.2794 5.0603 16.0205 4.99556 15.4163ZM20.8132 15.4163C20.7053 15.4163 20.6406 15.4163 20.5542 15.4163C20.1442 15.4163 19.9284 15.6105 20.0148 15.9989C20.0795 16.3226 20.2521 16.6247 20.4032 16.97C20.8348 16.2147 20.8779 16.1284 20.8132 15.4163ZM20.8132 9.58984C20.7485 9.58984 20.6621 9.58984 20.5758 9.58984C20.1011 9.58984 19.8853 9.87037 20.0148 10.3235C20.1011 10.6041 20.2521 10.8414 20.4032 11.1436C20.7053 10.6256 20.9427 10.1725 20.8132 9.58984ZM4.58555 11.122C4.88766 10.6257 5.12504 10.1725 4.97398 9.58984C4.90924 9.58984 4.82293 9.58984 4.75819 9.58984C4.26187 9.58984 4.04607 9.89196 4.21871 10.3451C4.30502 10.6041 4.45608 10.8414 4.58555 11.122ZM12.8936 2.51183C12.8073 2.51183 12.721 2.51183 12.6562 2.51183C12.203 2.51183 11.9873 2.79236 12.1167 3.22395C12.203 3.50448 12.3541 3.76343 12.5052 4.06554C12.8073 3.54764 13.0446 3.09447 12.8936 2.51183ZM20.8132 3.74185C20.7269 3.74185 20.6621 3.74185 20.5758 3.74185C20.1227 3.74185 19.8853 4.02238 20.0363 4.47555C20.1227 4.75608 20.2737 4.99345 20.4248 5.29556C20.7053 4.79924 20.9427 4.34607 20.8132 3.74185ZM12.0952 22.4727C12.0952 22.1922 12.1815 21.89 11.9009 21.739C11.793 21.6743 11.5772 21.6743 11.4694 21.739C11.1888 21.9116 11.2751 22.1922 11.2751 22.4727C11.5341 22.4727 11.793 22.4727 12.0952 22.4727ZM13.7568 22.4727C13.7352 22.1706 13.8431 21.8685 13.5194 21.7174C13.4115 21.6743 13.1957 21.6958 13.0878 21.7606C12.8288 21.9332 12.9152 22.2137 12.9367 22.4727C13.2173 22.4727 13.4762 22.4727 13.7568 22.4727Z" fill="#B6B6B6"/>
<path d="M9.46208 20.4005C9.54839 20.6594 9.61313 20.9183 9.69944 21.1773C9.37577 21.3067 9.07368 21.4146 8.79317 21.5657C8.55582 21.6951 8.34004 21.8462 8.14584 22.0404C7.84376 22.3425 7.86533 22.6446 8.14584 22.9466C8.51266 23.3135 8.9658 23.5292 9.4405 23.6803C11.5335 24.3276 13.6266 24.3276 15.698 23.6156C16.0864 23.4861 16.4748 23.2272 16.8201 22.9682C17.2085 22.6661 17.2085 22.2777 16.8201 21.9757C16.4532 21.6951 16.0217 21.5009 15.6117 21.2852C15.5254 21.242 15.4391 21.2204 15.3096 21.1773C15.3959 20.9183 15.4607 20.6594 15.547 20.3789C16.2375 20.5947 16.8848 20.8536 17.4027 21.3715C17.7479 21.6951 17.9421 22.1051 17.9205 22.6014C17.899 23.3782 17.9205 24.155 17.9205 24.9534C17.64 24.9534 17.3811 24.9534 17.1006 24.9534C17.1006 24.6081 17.1006 24.2629 17.1006 23.9392C14.0365 25.3633 11.0157 25.3418 7.93007 23.9392C7.93007 24.0471 7.93007 24.2197 7.93007 24.4139C7.93007 24.5865 7.93007 24.7592 7.93007 24.9534C7.64956 24.9534 7.39063 24.9534 7.08854 24.9534C7.08854 24.6513 7.08854 24.3492 7.08854 24.0471C7.08854 23.5508 7.11012 23.0761 7.08854 22.5798C7.06696 22.0835 7.26116 21.6736 7.62798 21.3283C8.14584 20.8752 8.7716 20.6163 9.46208 20.4005Z" fill="currentColor"/>
</svg>
