<svg width="34" height="34" viewBox="0 0 34 34" fill="none" xmlns="http://www.w3.org/2000/svg">
<path d="M18.2143 24.2857V14.5714H13.3572V17H15.7857V24.2857H12.1429V26.7143H21.8572V24.2857H18.2143ZM17 7.28571C16.6398 7.28571 16.2876 7.39253 15.9881 7.59267C15.6886 7.79281 15.4551 8.07728 15.3172 8.4101C15.1794 8.74293 15.1433 9.10916 15.2136 9.46248C15.2839 9.8158 15.4573 10.1403 15.7121 10.3951C15.9668 10.6498 16.2914 10.8233 16.6447 10.8936C16.998 10.9638 17.3642 10.9278 17.6971 10.7899C18.0299 10.6521 18.3143 10.4186 18.5145 10.1191C18.7146 9.81953 18.8215 9.46738 18.8215 9.10713C18.8215 8.62406 18.6296 8.16077 18.288 7.81919C17.9464 7.47761 17.4831 7.28571 17 7.28571Z" fill="#fb923c"/>
<path d="M17 34C13.6377 34 10.3509 33.003 7.55531 31.135C4.75968 29.267 2.58074 26.612 1.29406 23.5056C0.00736581 20.3993 -0.329291 16.9811 0.326658 13.6835C0.982607 10.3858 2.6017 7.35668 4.97919 4.97919C7.35668 2.6017 10.3858 0.982607 13.6835 0.326658C16.9811 -0.329291 20.3993 0.00736581 23.5056 1.29406C26.612 2.58074 29.267 4.75968 31.135 7.55531C33.003 10.3509 34 13.6377 34 17C34 21.5087 32.2089 25.8327 29.0208 29.0208C25.8327 32.2089 21.5087 34 17 34ZM17 2.42858C14.1181 2.42858 11.3008 3.28318 8.90456 4.88431C6.5083 6.48544 4.64064 8.76118 3.53776 11.4238C2.43489 14.0863 2.14632 17.0162 2.70856 19.8427C3.27081 22.6693 4.6586 25.2657 6.69645 27.3036C8.7343 29.3414 11.3307 30.7292 14.1573 31.2914C16.9838 31.8537 19.9137 31.5651 22.5763 30.4622C25.2388 29.3594 27.5146 27.4917 29.1157 25.0955C30.7168 22.6992 31.5714 19.882 31.5714 17C31.5714 13.1354 30.0362 9.42912 27.3036 6.69645C24.5709 3.96378 20.8646 2.42858 17 2.42858Z" fill="#fb923c"/>
</svg>
