<svg width="10" height="12" viewBox="0 0 10 12" fill="none" xmlns="http://www.w3.org/2000/svg">
<path d="M8.33333 4H9.44444C9.59179 4 9.7331 4.0602 9.83728 4.16737C9.94147 4.27453 10 4.41988 10 4.57143V11.4286C10 11.5801 9.94147 11.7255 9.83728 11.8326C9.7331 11.9398 9.59179 12 9.44444 12H0.555556C0.408213 12 0.266905 11.9398 0.162718 11.8326C0.0585316 11.7255 0 11.5801 0 11.4286V4.57143C0 4.41988 0.0585316 4.27453 0.162718 4.16737C0.266905 4.0602 0.408213 4 0.555556 4H1.66667V3.42857C1.66667 2.51926 2.01786 1.64719 2.64298 1.00421C3.2681 0.361223 4.11595 0 5 0C5.88406 0 6.7319 0.361223 7.35702 1.00421C7.98214 1.64719 8.33333 2.51926 8.33333 3.42857V4ZM1.11111 5.14286V10.8571H8.88889V5.14286H1.11111ZM4.44444 7.42857H5.55556V8.57143H4.44444V7.42857ZM2.22222 7.42857H3.33333V8.57143H2.22222V7.42857ZM6.66667 7.42857H7.77778V8.57143H6.66667V7.42857ZM7.22222 4V3.42857C7.22222 2.82236 6.9881 2.24098 6.57135 1.81233C6.1546 1.38367 5.58937 1.14286 5 1.14286C4.41063 1.14286 3.8454 1.38367 3.42865 1.81233C3.0119 2.24098 2.77778 2.82236 2.77778 3.42857V4H7.22222Z" fill="#B7B7B7"/>
</svg>
