<svg width="24" height="20" viewBox="0 0 12 8" fill="none" xmlns="http://www.w3.org/2000/svg">
<path d="M11.1429 0H0.857143C0.629814 0 0.411797 0.0842854 0.251051 0.234315C0.0903058 0.384344 0 0.587827 0 0.8V7.2C0 7.41217 0.0903058 7.61566 0.251051 7.76569C0.411797 7.91571 0.629814 8 0.857143 8H11.1429C11.3702 8 11.5882 7.91571 11.7489 7.76569C11.9097 7.61566 12 7.41217 12 7.2V0.8C12 0.587827 11.9097 0.384344 11.7489 0.234315C11.5882 0.0842854 11.3702 0 11.1429 0ZM10.2 0.8L6 3.512L1.8 0.8H10.2ZM0.857143 7.2V1.164L5.75571 4.328C5.82746 4.37445 5.91269 4.39934 6 4.39934C6.08731 4.39934 6.17254 4.37445 6.24429 4.328L11.1429 1.164V7.2H0.857143Z" fill="#B7B7B7"/>
</svg>
