<svg width="7" height="11" viewBox="0 0 7 11" fill="none" xmlns="http://www.w3.org/2000/svg">
<path d="M2.456 7.7H3.56C3.512 7.496 3.488 7.304 3.488 7.136C3.488 6.428 3.98 6.056 4.604 5.588C5.396 4.976 6.224 4.208 6.224 2.996C6.224 1.436 4.88 0.5 3.404 0.5C1.868 0.5 0.5 1.508 0.5 3.2C0.5 3.296 0.512 3.404 0.524 3.512L1.52 3.692C1.508 3.572 1.496 3.464 1.496 3.368C1.496 2.204 2.348 1.508 3.332 1.508C4.268 1.508 5.06 2.108 5.06 3.092C5.06 3.908 4.484 4.472 3.8 5C2.948 5.624 2.384 6.092 2.384 7.016C2.384 7.232 2.408 7.46 2.456 7.7ZM2.312 9.344C2.312 9.776 2.66 10.136 3.092 10.136C3.524 10.136 3.86 9.776 3.86 9.356C3.86 8.912 3.512 8.576 3.092 8.576C2.66 8.576 2.312 8.924 2.312 9.344Z" fill="#194049"/>
</svg>
