<svg width="17" height="18" viewBox="0 0 17 18" fill="none" xmlns="http://www.w3.org/2000/svg">
<path fill-rule="evenodd" clip-rule="evenodd" d="M6.82778 0.698242C3.0569 0.698242 0 3.75514 0 7.52602C0 11.2969 3.0569 14.3538 6.82778 14.3538C8.44178 14.3538 9.92547 13.7935 11.0941 12.857L15.5389 17.3018L16.6467 16.194L12.197 11.7443C13.1105 10.5831 13.6556 9.11793 13.6556 7.52602C13.6556 3.75514 10.5987 0.698242 6.82778 0.698242ZM1.56667 7.52602C1.56667 4.62038 3.92214 2.26491 6.82778 2.26491C9.73341 2.26491 12.0889 4.62039 12.0889 7.52602C12.0889 10.4317 9.73341 12.7871 6.82778 12.7871C3.92214 12.7871 1.56667 10.4317 1.56667 7.52602Z" fill="#B7B7B7"/>
</svg>
