<svg width="29" height="29" viewBox="0 0 29 29" fill="none" xmlns="http://www.w3.org/2000/svg">
<circle r="14.5" transform="matrix(1 0 0 -1 14.5 14.5)" fill="#32b09c"/>
<path fill-rule="evenodd" clip-rule="evenodd" d="M11.406 10.342C12.4055 9.48014 13.6802 9.00414 15 9C17.69 9 19.923 11 20.166 13.579C21.758 13.804 23 15.137 23 16.773C23 18.569 21.502 20 19.687 20H17C16.8674 20 16.7402 19.9473 16.6464 19.8536C16.5527 19.7598 16.5 19.6326 16.5 19.5C16.5 19.3674 16.5527 19.2402 16.6464 19.1464C16.7402 19.0527 16.8674 19 17 19H19.688C20.979 19 22 17.988 22 16.773C22 15.557 20.98 14.545 19.687 14.545H19.187V14.045C19.188 11.825 17.328 10 15 10C13.9199 10.0043 12.8768 10.3944 12.059 11.1C11.302 11.752 10.906 12.538 10.906 13.155V13.603L10.461 13.652C9.064 13.805 8 14.952 8 16.318C8 17.785 9.23 19 10.781 19H13C13.1326 19 13.2598 19.0527 13.3536 19.1464C13.4473 19.2402 13.5 19.3674 13.5 19.5C13.5 19.6326 13.4473 19.7598 13.3536 19.8536C13.2598 19.9473 13.1326 20 13 20H10.781C8.708 20 7 18.366 7 16.318C7 14.555 8.266 13.095 9.942 12.725C10.085 11.862 10.64 11.002 11.406 10.342V10.342Z" fill="#ffffff"/>
<path fill-rule="evenodd" clip-rule="evenodd" d="M14.6466 13.1459C14.6931 13.0994 14.7483 13.0624 14.809 13.0372C14.8697 13.012 14.9349 12.999 15.0006 12.999C15.0664 12.999 15.1315 13.012 15.1923 13.0372C15.253 13.0624 15.3082 13.0994 15.3546 13.1459L18.3546 16.1459C18.4485 16.2398 18.5013 16.3671 18.5013 16.4999C18.5013 16.6327 18.4485 16.76 18.3546 16.8539C18.2607 16.9478 18.1334 17.0005 18.0006 17.0005C17.8679 17.0005 17.7405 16.9478 17.6466 16.8539L15.5006 14.7069V23.4999C15.5006 23.6325 15.448 23.7597 15.3542 23.8535C15.2604 23.9472 15.1332 23.9999 15.0006 23.9999C14.868 23.9999 14.7408 23.9472 14.6471 23.8535C14.5533 23.7597 14.5006 23.6325 14.5006 23.4999V14.7069L12.3546 16.8539C12.2607 16.9478 12.1334 17.0005 12.0006 17.0005C11.8679 17.0005 11.7405 16.9478 11.6466 16.8539C11.5527 16.76 11.5 16.6327 11.5 16.4999C11.5 16.3671 11.5527 16.2398 11.6466 16.1459L14.6466 13.1459Z" fill="#ffffff"/>
</svg>
