<svg width="429" height="315" viewBox="0 0 429 315" fill="none" xmlns="http://www.w3.org/2000/svg">
<path d="M100.017 252.048C82.6168 238.748 65.7168 226.448 49.5168 213.248C32.7168 199.648 17.9168 183.848 4.21679 167.148C-1.18321 160.648 -1.48321 153.948 3.81679 147.648C41.4168 102.848 85.3168 66.1476 140.017 43.7476C192.417 22.2476 244.617 23.7476 296.117 47.0476C300.717 49.1476 303.217 48.5476 306.617 45.0476C319.817 31.3476 333.417 17.9476 346.917 4.54763C355.117 -3.55237 368.117 -0.352365 371.117 10.3476C372.817 16.3476 370.717 21.3476 366.317 25.6476C347.417 44.4476 328.617 63.2476 309.817 82.1476C234.417 157.548 159.017 232.848 83.6168 308.148C80.9168 310.848 77.2168 313.248 73.6168 314.148C67.3168 315.748 61.6168 312.348 58.7168 306.948C55.8168 301.448 56.7168 294.848 61.4168 290.148C71.4168 279.948 81.6168 269.948 91.7168 259.848C94.5168 256.948 97.5168 254.248 100.017 252.048ZM279.517 71.1476C259.917 62.8476 239.917 57.9476 218.917 57.3476C190.217 56.4476 163.317 63.8476 137.717 76.1476C98.0168 95.2476 64.8168 123.048 35.1168 155.148C34.5168 155.748 34.1168 156.548 33.5168 157.448C59.4168 185.848 88.1168 210.548 121.617 229.748C127.317 224.048 132.717 218.548 138.217 213.148C143.817 207.648 149.417 202.148 154.817 196.848C137.117 166.948 139.517 134.348 160.717 109.948C170.417 98.7476 182.717 91.3476 197.117 87.8476C217.317 82.9476 236.317 86.4476 253.517 97.1476C262.217 88.4476 270.617 80.0476 279.517 71.1476ZM175.517 173.948C194.117 155.348 212.617 136.848 231.017 118.448C217.217 111.148 196.017 114.948 183.817 127.248C171.417 139.948 168.017 160.048 175.517 173.948Z" fill="#B7B7B7"/>
<path d="M395.417 157.048C381.017 140.948 365.717 126.448 349.117 113.248C347.717 112.148 346.317 111.048 344.917 109.848C338.517 104.348 337.617 95.8477 342.617 89.5477C347.617 83.3477 356.517 82.1477 362.917 87.6477C377.317 100.048 391.517 112.748 405.417 125.748C412.517 132.448 418.717 140.148 425.117 147.648C430.117 153.548 430.317 160.448 425.317 166.348C386.217 212.748 340.717 250.548 283.417 272.648C259.317 281.948 234.317 286.748 208.417 285.548C199.517 285.148 190.617 284.048 181.817 282.748C173.417 281.448 168.617 274.448 169.717 266.248C170.717 258.948 177.417 253.848 185.617 254.448C195.817 255.148 206.017 257.048 216.217 256.948C249.317 256.548 279.417 245.648 307.717 229.448C340.017 210.948 367.917 186.948 393.117 159.748C393.917 159.048 394.517 158.148 395.417 157.048Z" fill="#B7B7B7"/>
</svg>
