<svg width="410" height="262" viewBox="0 0 410 262" fill="none" xmlns="http://www.w3.org/2000/svg">
<path d="M0 127.409C9.4 115.709 18.2 103.509 28.4 92.509C51.6 67.409 77.7 45.809 107.4 28.609C131.6 14.609 157.2 4.60897 185.1 1.20897C216.4 -2.59103 246.4 2.70897 275.2 15.109C312.2 31.009 343.9 54.609 372.1 83.109C383.8 94.909 394.5 107.809 405.3 120.409C411.4 127.609 411.2 133.509 405.4 140.909C376.5 177.509 342.9 209.009 302.4 232.609C278.1 246.709 252.3 256.809 224.3 260.109C192.6 263.909 162.2 258.309 133.1 245.609C96.7 229.709 65.4 206.309 37.7 178.309C26.1 166.609 15.6 153.809 4.7 141.309C2.8 139.109 1.6 136.409 0.0999985 133.909C-1.52737e-06 131.709 0 129.509 0 127.409ZM29.6 130.909C44 145.309 57 159.409 71.2 172.309C96.4 195.309 124.3 214.109 156.8 225.509C178.2 233.009 200.2 236.009 222.8 232.809C247.9 229.309 270.9 219.709 292.5 206.709C321.6 189.209 346.6 166.709 369.3 141.509C372.5 138.009 375.5 134.309 378.9 130.309C371.4 122.109 364.3 114.009 356.8 106.309C330.2 79.209 300.8 55.909 265.6 40.609C248.5 33.209 230.8 28.209 212.1 27.309C182.8 25.709 155.8 33.909 130.1 47.109C105.3 59.909 83.3 76.709 63.2 95.909C51.9 106.909 41.4 118.609 29.6 130.909Z" fill="#B7B7B7"/>
<path d="M204.8 211.609C160 211.609 123.6 175.209 123.8 130.509C123.9 85.609 160.4 49.309 205 49.609C249.8 49.909 285.6 85.709 285.8 130.509C285.9 175.109 249.5 211.609 204.8 211.609ZM205 76.809C175.2 76.609 151.1 100.509 151 130.409C150.8 160.209 174.7 184.309 204.6 184.409C234.4 184.609 258.5 160.709 258.6 130.809C258.7 101.009 234.9 76.909 205 76.809Z" fill="#B7B7B7"/>
</svg>
