<svg width="27" height="24" viewBox="0 0 27 24" fill="none" xmlns="http://www.w3.org/2000/svg">
<path d="M13.0279 23.9275C9.81426 23.9275 6.6006 23.9275 3.38695 23.9275C2.15464 23.9275 1.2123 23.2268 0.946509 22.1153C0.898183 21.8978 0.874023 21.6562 0.874023 21.4146C0.874023 16.9203 0.874023 12.4019 0.874023 7.90758C0.874023 6.40948 1.91302 5.39465 3.41112 5.39465C3.70107 5.39465 4.01518 5.39465 4.30513 5.39465C4.49843 5.39465 4.57093 5.34632 4.64341 5.17718C5.175 3.84823 5.70657 2.51927 6.23815 1.19032C6.67308 0.127155 7.6396 -0.259449 8.70276 0.175481C12.7863 1.86688 16.8698 3.58244 20.9533 5.27383C21.1708 5.37048 21.4124 5.39464 21.6299 5.41881C22.1614 5.44297 22.7172 5.41881 23.2488 5.4913C24.3361 5.63627 25.1576 6.55446 25.2059 7.64179C25.2543 8.55997 25.2301 9.47816 25.2301 10.3722C25.2301 10.5655 25.2543 10.6621 25.4718 10.7105C26.0033 10.8313 26.3899 11.2904 26.3899 11.8461C26.3899 13.755 26.3899 15.6638 26.3899 17.5727C26.3899 18.1526 26.0033 18.6117 25.4476 18.7325C25.2543 18.7808 25.2301 18.8533 25.2301 19.0225C25.2301 19.844 25.2301 20.6655 25.2301 21.4871C25.206 22.9852 24.2153 24 22.693 24C20.6392 24 18.6095 24 16.5557 24C15.3475 23.9275 14.1877 23.9275 13.0279 23.9275ZM24.022 10.5896C24.022 9.67146 23.9978 8.8016 24.022 7.93174C24.0461 7.13437 23.4421 6.55446 22.6689 6.55446C16.2416 6.57862 9.81425 6.55446 3.38695 6.55446C2.51708 6.55446 2.05799 7.03772 2.05799 7.90758C2.05799 12.4019 2.05799 16.9203 2.05799 21.4146C2.05799 22.2603 2.54125 22.7435 3.38695 22.7435C9.83841 22.7435 16.2899 22.7435 22.7414 22.7435C23.5629 22.7435 24.0703 22.2361 24.0703 21.4146C24.0703 20.593 24.0703 19.7715 24.0703 18.95C24.0703 18.8775 24.0703 18.805 24.0461 18.7083C22.4031 18.7083 20.8083 18.7083 19.1894 18.7083C18.9236 18.7083 18.6578 18.6842 18.3679 18.66C16.0483 18.4426 14.381 16.1229 14.8643 13.8516C15.275 11.8944 16.894 10.5896 18.8995 10.5896C20.5184 10.5896 22.1131 10.5896 23.732 10.5896C23.8045 10.5896 23.9012 10.5896 24.022 10.5896ZM25.1576 11.8219C25.1093 11.8219 25.0851 11.7978 25.0368 11.7978C22.8622 11.7736 20.6875 11.7253 18.537 11.7736C16.9423 11.7978 15.6616 13.4892 15.9516 15.0598C16.2174 16.5579 17.353 17.5244 18.8995 17.5244C20.905 17.5244 22.8863 17.5244 24.8918 17.5244C24.9885 17.5244 25.061 17.5244 25.1576 17.5002C25.1576 15.6155 25.1576 13.7308 25.1576 11.8219ZM18.1263 5.37048C18.0538 5.32216 18.0296 5.29799 18.0054 5.29799C14.7193 3.92071 11.4332 2.5676 8.17118 1.19032C7.76041 1.02118 7.47046 1.16615 7.30132 1.57692C6.93888 2.49511 6.57644 3.4133 6.214 4.30732C6.06902 4.6456 5.9482 4.98388 5.80323 5.37048C6.16567 5.37048 6.47979 5.34632 6.81807 5.37048C7.03553 5.37048 7.15635 5.32216 7.22884 5.10469C7.39798 4.62144 7.59128 4.11402 7.78458 3.63076C8.00204 3.07502 8.21951 2.9542 8.79942 3.1475C10.8291 3.82406 12.8588 4.50062 14.9126 5.17718C15.0817 5.22551 15.275 5.34632 15.4442 5.34632C16.314 5.37048 17.1839 5.37048 18.1263 5.37048ZM8.36449 5.34632C9.47598 5.34632 10.515 5.34632 11.5781 5.34632C11.5781 5.32216 11.5781 5.32216 11.5781 5.29799C10.6358 4.98388 9.69345 4.66976 8.72693 4.35564C8.60612 4.71809 8.48531 5.00804 8.36449 5.34632Z" fill="currentColor"/>
<path d="M7.20525 12.3293C6.4562 12.3293 5.70715 12.3293 4.95811 12.3293C4.47485 12.3293 4.20907 11.9185 4.37821 11.5319C4.47486 11.3144 4.64399 11.1936 4.88562 11.1936C6.43204 11.1936 8.00262 11.1936 9.54904 11.1936C9.88732 11.1936 10.1048 11.4352 10.129 11.7493C10.129 12.0635 9.91149 12.3293 9.57321 12.3293C8.8 12.3293 8.00262 12.3293 7.20525 12.3293Z" fill="currentColor"/>
<path d="M6.09367 8.84985C6.45611 8.84985 6.81856 8.84985 7.181 8.84985C7.5676 8.84985 7.8334 9.09148 7.8334 9.42976C7.8334 9.76804 7.59176 10.0338 7.20515 10.0338C6.45611 10.0338 5.73124 10.0338 4.98219 10.0338C4.61975 10.0338 4.32978 9.74388 4.35395 9.42976C4.37811 9.09148 4.61975 8.87402 4.98219 8.87402C5.34463 8.84985 5.70707 8.84985 6.09367 8.84985Z" fill="currentColor"/>
<path d="M18.8042 12.9099C19.7707 12.9099 20.5439 13.659 20.5439 14.6496C20.5439 15.6161 19.7707 16.3894 18.8042 16.3894C17.8377 16.3894 17.0645 15.6161 17.0645 14.6496C17.0886 13.6831 17.8377 12.9099 18.8042 12.9099ZM19.3841 14.6255C19.3841 14.3114 19.1183 14.0697 18.8283 14.0697C18.5142 14.0697 18.2726 14.3114 18.2484 14.6255C18.2484 14.9637 18.4901 15.2054 18.8283 15.2054C19.1425 15.2054 19.3841 14.9637 19.3841 14.6255Z" fill="currentColor"/>
</svg>
